<svg width="186" height="23" viewBox="0 0 186 23" fill="none" xmlns="http://www.w3.org/2000/svg">
<path d="M168.449 14.9008L168.514 14.0328H179.437L179.469 14.9008H168.449ZM164.067 22.279C164.306 21.8657 164.557 21.3903 164.819 20.853C165.102 20.295 165.396 19.6956 165.702 19.0549C166.029 18.3936 166.367 17.6805 166.715 16.9159C167.086 16.1512 167.457 15.3555 167.827 14.5288L174.172 0.299347H175.087L185.16 22.279H182.184L173.714 3.46144L169.986 11.8937C169.593 12.7824 169.201 13.6814 168.808 14.5908C168.438 15.4795 168.078 16.3682 167.729 17.2569C167.38 18.1249 167.053 18.9929 166.748 19.8609C166.443 20.7083 166.17 21.5143 165.931 22.279H164.067Z" fill="black"/>
<path d="M157.422 22.279L147.317 11.2736C148.014 10.6123 148.701 9.96127 149.377 9.32059C150.075 8.65923 150.761 7.99788 151.437 7.33653C152.048 6.75784 152.647 6.16882 153.236 5.56947C153.824 4.97012 154.38 4.3811 154.904 3.80242C155.427 3.22373 155.928 2.66572 156.408 2.12837C156.888 1.57035 157.324 1.05367 157.716 0.57832H160.234C160.103 0.722991 159.776 1.02267 159.253 1.47735C158.73 1.91136 158.098 2.43838 157.356 3.0584C156.637 3.67842 155.852 4.3811 155.002 5.16646C154.151 5.93115 153.323 6.69584 152.516 7.46053L149.769 10.1266L161.019 22.279H157.422ZM143.719 22.279V0.57832H146.499V22.279H143.719Z" fill="black"/>
<path d="M123.759 22.279V0.578351C124.086 0.578351 124.501 0.578351 125.002 0.578351C125.504 0.557684 126.027 0.54735 126.572 0.54735C127.117 0.526683 127.651 0.51635 128.174 0.51635C128.697 0.51635 129.133 0.51635 129.482 0.51635C130.66 0.51635 131.771 0.63002 132.818 0.85736C133.864 1.0847 134.791 1.44638 135.598 1.94239C136.404 2.43841 137.037 3.07909 137.494 3.86445C137.974 4.64981 138.214 5.61084 138.214 6.74754C138.214 7.82224 137.996 8.77294 137.56 9.59963C137.146 10.4263 136.546 11.129 135.761 11.7077C134.976 12.2864 134.006 12.7307 132.851 13.0407C131.717 13.3301 130.431 13.4747 128.992 13.4747C128.556 13.4747 128.131 13.4747 127.716 13.4747C127.324 13.4541 126.932 13.4231 126.539 13.3817V22.279H123.759ZM128.828 12.6377C129.918 12.6377 130.867 12.5034 131.673 12.2347C132.48 11.9454 133.145 11.5527 133.668 11.0567C134.213 10.54 134.617 9.9303 134.878 9.22762C135.14 8.52493 135.271 7.7499 135.271 6.90255C135.271 6.01385 135.14 5.22849 134.878 4.54647C134.617 3.86445 134.202 3.28577 133.636 2.81042C133.09 2.33507 132.415 1.97339 131.608 1.72539C130.801 1.47738 129.853 1.35338 128.763 1.35338C128.567 1.35338 128.37 1.35338 128.174 1.35338C128 1.35338 127.825 1.36371 127.651 1.38438C127.477 1.38438 127.291 1.39471 127.095 1.41538C126.921 1.41538 126.735 1.42571 126.539 1.44638V12.4827C126.91 12.5241 127.28 12.5654 127.651 12.6067C128.043 12.6274 128.436 12.6377 128.828 12.6377Z" fill="black"/>
<path d="M106.251 22.589C104.507 22.589 102.904 22.3204 101.444 21.783C99.983 21.225 98.7185 20.4603 97.6502 19.4889C96.6037 18.4969 95.7862 17.3189 95.1975 15.9548C94.6089 14.5908 94.3146 13.0821 94.3146 11.4287C94.3146 9.85799 94.598 8.39061 95.1648 7.02657C95.7535 5.66253 96.571 4.48449 97.6175 3.49246C98.664 2.47976 99.9176 1.6944 101.378 1.13639C102.839 0.557702 104.463 0.26836 106.251 0.26836C107.973 0.26836 109.565 0.547369 111.025 1.10539C112.486 1.64274 113.74 2.40743 114.786 3.39946C115.855 4.37082 116.683 5.54886 117.272 6.93356C117.882 8.31827 118.187 9.83732 118.187 11.4907C118.187 13.1028 117.871 14.5908 117.239 15.9548C116.607 17.2982 115.756 18.4659 114.688 19.4579C113.62 20.4293 112.355 21.194 110.895 21.752C109.456 22.31 107.908 22.589 106.251 22.589ZM106.545 21.783C108.006 21.783 109.27 21.504 110.339 20.946C111.407 20.3673 112.301 19.613 113.02 18.6829C113.762 17.7322 114.318 16.6265 114.688 15.3658C115.059 14.1051 115.244 12.7927 115.244 11.4287C115.244 10.4367 115.135 9.49631 114.917 8.60762C114.721 7.69826 114.427 6.86123 114.034 6.09654C113.642 5.33185 113.162 4.64983 112.595 4.05048C112.05 3.43046 111.429 2.90344 110.731 2.46943C110.055 2.01475 109.303 1.67374 108.475 1.4464C107.668 1.19839 106.807 1.07439 105.891 1.07439C104.54 1.07439 103.319 1.35339 102.229 1.91141C101.16 2.44876 100.256 3.19278 99.5143 4.14348C98.773 5.07351 98.2062 6.17921 97.8137 7.46058C97.4431 8.72129 97.2578 10.0647 97.2578 11.4907C97.2578 12.4001 97.3559 13.2888 97.5521 14.1568C97.7701 15.0248 98.0645 15.8412 98.4351 16.6059C98.8275 17.3499 99.2962 18.0422 99.8413 18.6829C100.408 19.3236 101.04 19.8713 101.738 20.326C102.436 20.7807 103.188 21.1423 103.994 21.411C104.801 21.659 105.651 21.783 106.545 21.783Z" fill="black"/>
<path d="M70.0472 22.279V0.57832H72.8269V10.4676H85.9406V0.57832H88.7203V22.279H85.9406V11.3356H72.8269V22.279H70.0472Z" fill="black"/>
<path d="M50.0874 22.279V0.578351C50.4144 0.578351 50.8287 0.578351 51.3301 0.578351C51.8315 0.557684 52.3548 0.54735 52.8998 0.54735C53.4448 0.526683 53.979 0.51635 54.5022 0.51635C55.0255 0.51635 55.4615 0.51635 55.8103 0.51635C56.9876 0.51635 58.0995 0.63002 59.146 0.85736C60.1924 1.0847 61.119 1.44638 61.9257 1.94239C62.7323 2.43841 63.3646 3.07909 63.8224 3.86445C64.302 4.64981 64.5418 5.61084 64.5418 6.74754C64.5418 7.82224 64.3238 8.77294 63.8878 9.59963C63.4736 10.4263 62.874 11.129 62.0892 11.7077C61.3043 12.2864 60.3341 12.7307 59.1787 13.0407C58.045 13.3301 56.7587 13.4747 55.3198 13.4747C54.8837 13.4747 54.4586 13.4747 54.0444 13.4747C53.652 13.4541 53.2595 13.4231 52.8671 13.3817V22.279H50.0874ZM55.1563 12.6377C56.2463 12.6377 57.1947 12.5034 58.0014 12.2347C58.808 11.9454 59.473 11.5527 59.9962 11.0567C60.5413 10.54 60.9446 9.9303 61.2062 9.22762C61.4678 8.52493 61.5986 7.7499 61.5986 6.90255C61.5986 6.01385 61.4678 5.22849 61.2062 4.54647C60.9446 3.86445 60.5304 3.28577 59.9635 2.81042C59.4185 2.33507 58.7426 1.97339 57.936 1.72539C57.1293 1.47738 56.1809 1.35338 55.0909 1.35338C54.8946 1.35338 54.6984 1.35338 54.5022 1.35338C54.3278 1.35338 54.1534 1.36371 53.979 1.38438C53.8046 1.38438 53.6193 1.39471 53.423 1.41538C53.2486 1.41538 53.0633 1.42571 52.8671 1.44638V12.4827C53.2377 12.5241 53.6084 12.5654 53.979 12.6067C54.3714 12.6274 54.7638 12.6377 55.1563 12.6377Z" fill="black"/>
<path d="M32.398 22.341C32.1582 22.341 31.9184 22.3203 31.6785 22.279C31.4387 22.217 31.188 22.1446 30.9264 22.062L31.515 20.0159C31.8421 20.1813 32.1255 20.2846 32.3653 20.3259C32.6051 20.3673 32.8558 20.3879 33.1174 20.3879C33.3355 20.3879 33.5753 20.3569 33.8369 20.2949C34.0985 20.2123 34.3601 20.0779 34.6218 19.8919C34.9052 19.7059 35.1886 19.4476 35.472 19.1169C35.7554 18.7862 36.028 18.3522 36.2896 17.8148L36.4531 17.4738L25.7921 0.57832H28.9315L37.7939 14.6838L40.6063 8.60757C40.9769 7.82221 41.3257 7.02652 41.6528 6.22049C42.0016 5.3938 42.3177 4.61878 42.6011 3.89542C42.8845 3.17207 43.1244 2.52105 43.3206 1.94236C43.5386 1.34301 43.7021 0.888329 43.8111 0.57832H45.7406C45.5225 0.950331 45.2391 1.46701 44.8903 2.12837C44.5415 2.76905 44.1708 3.47174 43.7784 4.23643C43.4078 4.98046 43.0263 5.73481 42.6338 6.4995C42.2632 7.26419 41.9362 7.94621 41.6528 8.54556L37.5323 17.3188C37.118 18.2282 36.7147 19.0032 36.3223 19.6439C35.9298 20.2639 35.5374 20.7806 35.145 21.194C34.7526 21.5866 34.3274 21.876 33.8696 22.062C33.4336 22.248 32.943 22.341 32.398 22.341Z" fill="black"/>
<path d="M0.159546 22.279C0.224951 21.6383 0.290355 20.8426 0.35576 19.8919C0.421165 18.9412 0.475669 17.9595 0.519272 16.9468C0.562875 15.9135 0.595577 14.9008 0.617379 13.9087C0.63918 12.896 0.650081 12.028 0.650081 11.3047V0.454323H1.63115L11.2783 12.1417L20.3696 0.454323H21.318V22.279H18.5383V4.23644L10.3954 14.7148H9.90485L1.63115 4.51545V11.3047C1.63115 12.3174 1.64205 13.3507 1.66385 14.4048C1.70746 15.4381 1.75106 16.4405 1.79466 17.4118C1.83827 18.3832 1.89277 19.2822 1.95818 20.1089C2.02358 20.9356 2.07808 21.659 2.12169 22.279H0.159546Z" fill="black"/>
</svg>
