<svg width="34" height="34" viewBox="0 0 34 34" fill="none" xmlns="http://www.w3.org/2000/svg">
<path d="M5.25583 7.65H26.809C28.7612 7.65 30.1708 9.44917 29.6353 11.2597L27.2921 19.193C26.9308 20.4113 25.7777 21.25 24.4658 21.25H11.492C10.1788 21.25 9.02417 20.4099 8.66433 19.193L5.25583 7.65ZM5.25583 7.65L4.25 4.25M23.375 29.75C23.9386 29.75 24.4791 29.5261 24.8776 29.1276C25.2761 28.7291 25.5 28.1886 25.5 27.625C25.5 27.0614 25.2761 26.5209 24.8776 26.1224C24.4791 25.7239 23.9386 25.5 23.375 25.5C22.8114 25.5 22.2709 25.7239 21.8724 26.1224C21.4739 26.5209 21.25 27.0614 21.25 27.625C21.25 28.1886 21.4739 28.7291 21.8724 29.1276C22.2709 29.5261 22.8114 29.75 23.375 29.75ZM12.0417 29.75C12.6053 29.75 13.1458 29.5261 13.5443 29.1276C13.9428 28.7291 14.1667 28.1886 14.1667 27.625C14.1667 27.0614 13.9428 26.5209 13.5443 26.1224C13.1458 25.7239 12.6053 25.5 12.0417 25.5C11.4781 25.5 10.9376 25.7239 10.5391 26.1224C10.1406 26.5209 9.91667 27.0614 9.91667 27.625C9.91667 28.1886 10.1406 28.7291 10.5391 29.1276C10.9376 29.5261 11.4781 29.75 12.0417 29.75Z" stroke="black" stroke-width="1.5" stroke-linecap="round" stroke-linejoin="round"/>
</svg>
